<?xml version="1.0" encoding="UTF-8"?>
<svg width="215px" height="30px" viewBox="0 0 215 30" version="1.1" xmlns="http://www.w3.org/2000/svg" xmlns:xlink="http://www.w3.org/1999/xlink">
    <title>Group 2</title>
    <g id="Symbols" stroke="none" stroke-width="1" fill="none" fill-rule="evenodd">
        <g id="Nav/Author/Learning" transform="translate(-25.000000, -6.000000)" fill-rule="nonzero">
            <g id="Group-2" transform="translate(25.072000, 6.431965)">
                <g id="Logo" fill="#FFFFFF">
                    <path d="M5.00800082,10.672033 L4.81600079,8.14403258 C4.77332891,7.85606379 4.69332889,7.65339188 4.57600075,7.53603249 C4.45867261,7.41882934 4.24534445,7.36015746 3.93600065,7.36003246 L2.30400038,7.36003246 L0,7.36003246 L0,8.73603268 C0,9.06667336 0.160000026,9.26400152 0.480000079,9.32803278 C0.67200011,9.37067341 1.28000021,9.49334531 2.30400038,9.69603284 L2.30400038,21.2320347 L0.480000079,21.6000348 C0.160000026,21.6640348 0,21.861363 0,22.1920349 L0,23.5680351 L7.45600122,23.5680351 L7.45600122,22.1920349 C7.45600122,21.861363 7.2960012,21.6640348 6.97600114,21.6000348 C6.02667286,21.4080348 5.41867276,21.2853629 5.15200084,21.2320347 L5.15200084,13.2480334 C6.06932912,10.9973612 7.45600122,9.87203287 9.31200153,9.87203287 C9.86667349,9.87203287 10.2986736,9.92270475 10.6080017,10.0240329 C10.9173299,10.125361 11.17333,10.1760329 11.3760019,10.1760329 C11.5786738,10.1760329 11.7173457,10.0427048 11.7920176,9.77603285 L12.1600176,7.6480325 C11.5093613,7.26403244 10.768033,7.07203241 9.93603288,7.07203241 C7.83470441,7.07203241 6.19200101,8.27203261 5.00800082,10.672033 Z" id="Path"></path>
                    <path d="M21.0080324,7.10403241 C19.8347041,7.10403241 18.7787039,7.30932932 17.8400319,7.72003252 C16.9013599,8.13067321 16.1066879,8.69600143 15.4560159,9.41601717 C14.8053439,10.1360173 14.306672,10.9866893 13.96,11.9680176 C13.6133281,12.9493459 13.4399999,14.005346 13.4399999,15.1360181 C13.4399999,16.5333465 13.632,17.7706748 14.016,18.8480031 C14.4000001,19.9253314 14.9360002,20.8293315 15.6240003,21.5600035 C16.3120004,22.2906755 17.1280005,22.8453475 18.0720007,23.2240194 C19.0160009,23.6026914 20.048001,23.7920195 21.1680012,23.7920195 C21.7546732,23.7920195 22.3466733,23.7413476 22.9440015,23.6400195 C23.5413297,23.5386914 24.1200017,23.3866913 24.6800174,23.1840194 C25.2400175,22.9813475 25.7653457,22.7226756 26.2560177,22.4080037 C26.7466896,22.0933317 27.1680178,21.7226598 27.5200179,21.2959879 L26.7200177,20.2559877 C26.592049,20.0746595 26.4107208,19.9839877 26.1760333,19.9839877 C25.9947051,19.9839877 25.7787051,20.0666595 25.5280332,20.2319877 C25.2773613,20.3973158 24.9653612,20.5759877 24.592033,20.7679878 C24.2187048,20.9599878 23.7733766,21.1386597 23.2560484,21.3039879 C22.7387202,21.469316 22.1227201,21.5519879 21.4080481,21.5519879 C20.640048,21.5519879 19.9467198,21.4266598 19.3280478,21.1759878 C18.7093758,20.9253159 18.1760476,20.546644 17.7280475,20.039972 C17.2800474,19.5333001 16.9280474,18.9013 16.6720473,18.1439717 C16.4160473,17.3866435 16.2773754,16.4959715 16.2560473,15.4719713 L27.040049,15.4719713 C27.306721,15.4719713 27.4880491,15.3972994 27.5840491,15.2479712 C27.6800491,15.0986587 27.7280492,14.7999868 27.7280492,14.3519555 C27.7280492,13.1999553 27.5600491,12.1732832 27.2240491,11.2719393 C26.888049,10.3706111 26.4213771,9.61328283 25.8240488,8.99993898 C25.2267206,8.38661075 24.5173924,7.91728255 23.6960641,7.59193874 C22.8747359,7.26670432 21.9787045,7.10403241 21.0080324,7.10403241 Z M21.0720637,9.19993898 C21.7227357,9.19987651 22.3014076,9.30920465 22.8080796,9.52792344 C23.3147516,9.7465641 23.7440798,10.0558923 24.0960798,10.4559236 C24.4480486,10.8559237 24.7147205,11.3305956 24.8960956,11.8799238 C25.0773768,12.429252 25.1680956,13.0345803 25.1680956,13.6959085 L16.3520942,13.6959085 C16.5440942,12.2879083 17.0347662,11.18658 17.8240944,10.391908 C18.6134227,9.59723595 19.6960635,9.19993898 21.0720637,9.19993898 Z" id="Shape"></path>
                    <path d="M36.7680324,7.10403241 C35.5947041,7.10403241 34.5387039,7.30932932 33.6000319,7.72003252 C32.6613599,8.13067321 31.8666879,8.69600143 31.2160159,9.41601717 C30.5653439,10.1360173 30.066672,10.9866893 29.72,11.9680176 C29.3733281,12.9493459 29.1999999,14.005346 29.1999999,15.1360181 C29.1999999,16.5333465 29.392,17.7706748 29.776,18.8480031 C30.1600001,19.9253314 30.6960002,20.8293315 31.3840003,21.5600035 C32.0720004,22.2906755 32.8880005,22.8453475 33.8320007,23.2240194 C34.7760009,23.6026914 35.808001,23.7920195 36.9280012,23.7920195 C37.5146732,23.7920195 38.1066733,23.7413476 38.7040015,23.6400195 C39.3013297,23.5386914 39.8800017,23.3866913 40.4400174,23.1840194 C41.0000175,22.9813475 41.5253457,22.7226756 42.0160177,22.4080037 C42.5066896,22.0933317 42.9280178,21.7226598 43.2800179,21.2959879 L42.4800177,20.2559877 C42.352049,20.0746595 42.1707208,19.9839877 41.9360333,19.9839877 C41.7547051,19.9839877 41.5387051,20.0666595 41.2880332,20.2319877 C41.0373613,20.3973158 40.7253612,20.5759877 40.352033,20.7679878 C39.9787048,20.9599878 39.5333766,21.1386597 39.0160484,21.3039879 C38.4987202,21.469316 37.8827201,21.5519879 37.1680481,21.5519879 C36.400048,21.5519879 35.7067198,21.4266598 35.0880478,21.1759878 C34.4693758,20.9253159 33.9360476,20.546644 33.4880475,20.039972 C33.0400474,19.5333001 32.6880474,18.9013 32.4320473,18.1439717 C32.1760473,17.3866435 32.0373754,16.4959715 32.0160473,15.4719713 L42.800049,15.4719713 C43.066721,15.4719713 43.2480491,15.3972994 43.3440491,15.2479712 C43.4400491,15.0986587 43.4880492,14.7999868 43.4880492,14.3519555 C43.4880492,13.1999553 43.3200491,12.1732832 42.9840491,11.2719393 C42.648049,10.3706111 42.1813771,9.61328283 41.5840488,8.99993898 C40.9867206,8.38661075 40.2773924,7.91728255 39.4560641,7.59193874 C38.6347359,7.26670432 37.7387045,7.10403241 36.7680324,7.10403241 Z M36.8320637,9.19993898 C37.4827357,9.19987651 38.0614076,9.30920465 38.5680796,9.52792344 C39.0747516,9.7465641 39.5040798,10.0558923 39.8560798,10.4559236 C40.2080486,10.8559237 40.4747205,11.3305956 40.6560956,11.8799238 C40.8373768,12.429252 40.9280956,13.0345803 40.9280956,13.6959085 L32.1120942,13.6959085 C32.3040942,12.2879083 32.7947662,11.18658 33.5840944,10.391908 C34.3734227,9.59723595 35.4560635,9.19993898 36.8320637,9.19993898 Z" id="Shape"></path>
                    <path d="M52.0000011,7.07203241 C49.8560007,7.07203241 48.1440005,7.88270442 46.8640002,9.50403281 C45.616,11.0613612 44.9919999,13.0666896 44.9919999,15.5200182 C44.9919999,18.1866905 45.5466719,20.2400189 46.6560002,21.6800192 C47.7333285,23.0880194 49.2213288,23.7920195 51.1200009,23.7920195 C53.2213294,23.7920195 55.0346578,22.8640194 56.5600018,21.0080191 L56.8160019,22.9760194 C56.9226738,23.3706913 57.1786738,23.5680195 57.584002,23.5680195 L61.5840027,23.5680195 L61.5840027,22.1920193 C61.5840027,21.8613473 61.4240026,21.6640192 61.1040026,21.6000192 C60.9120026,21.5573473 60.3040025,21.4346754 59.2800023,21.2320035 L59.2800023,0 L53.8080014,0 L53.8080014,1.37600023 C53.8080014,1.70667215 53.9733295,1.90667219 54.3040015,1.97600032 C54.6346734,2.04532846 55.3440016,2.16532848 56.4320018,2.33600038 L56.4320018,8.99200147 C55.2693298,7.71200126 53.7920014,7.07203241 52.0000011,7.07203241 Z M52.0640011,21.4880035 C51.4026729,21.4880035 50.8160009,21.3760035 50.3040008,21.1520035 C48.7253287,20.4586752 47.9360004,18.5813468 47.9360004,15.5200182 C47.9360004,13.525346 48.3413286,11.9893457 49.1520006,10.9120174 C49.962657,9.83470474 51.1439853,9.29601715 52.6959856,9.29601715 C54.2479858,9.29601715 55.4933142,9.93068913 56.4319862,11.2000175 L56.4319862,19.0400187 C55.2053141,20.672019 53.7493295,21.4880035 52.0640011,21.4880035 Z" id="Shape"></path>
                    <path d="M69.760001,7.10403241 C67.7866726,7.10403241 66.2666723,7.57870437 65.2000003,8.52803265 C64.1973283,9.40268904 63.696,10.4960173 63.696,11.8080176 C63.696,13.066674 64.1333282,14.0640023 65.0080003,14.8000024 C65.4026722,15.1306587 65.8906723,15.4213307 66.4720005,15.6720026 C67.0533287,15.9226745 68.0480008,16.2666745 69.456001,16.7040027 C69.9680011,16.8533309 70.4213293,17.0320028 70.8160012,17.2400028 C71.2106732,17.4480029 71.5280013,17.6986748 71.7680014,17.9920186 C72.0080014,18.2853467 72.1280014,18.7360187 72.1280014,19.3440188 C72.1280014,19.9520189 71.8560014,20.496019 71.3120013,20.9760191 C70.7040012,21.5093473 69.8720011,21.7760192 68.8160009,21.7760192 C67.5360007,21.7760192 66.4373286,21.562691 65.5200003,21.1360191 C65.4133285,19.8666908 65.3493284,19.1840188 65.3280003,19.0880188 C65.2746722,18.8213625 65.1146722,18.6880343 64.8480002,18.6880187 L63.712,18.6880187 L63.712,22.9280194 C65.4506722,23.5253476 67.1946725,23.8186758 68.9440009,23.8080039 C70.6933293,23.797332 72.1173296,23.3013319 73.2160016,22.3200037 C74.2720018,21.3920035 74.8000019,20.1546752 74.8000019,18.6080031 C74.8000019,17.4240029 74.3626893,16.4746746 73.4880173,15.7600026 C73.0933453,15.4400338 72.6453453,15.1733619 72.1440171,14.9600025 C71.6426888,14.7466899 71.1280169,14.552018 70.6000168,14.3760024 C70.0720167,14.200018 69.4080166,13.989346 68.6080165,13.7440023 C67.8080163,13.4986897 67.1946881,13.1253615 66.7680162,12.6240021 C66.522688,12.3466739 66.4000161,11.936002 66.4000005,11.3919862 C66.4000005,10.8480018 66.6826724,10.3573298 67.2480006,9.919986 C67.8133288,9.47198593 68.549329,9.24265776 69.456001,9.23198589 L69.488001,9.23198589 C70.1813292,9.23198589 71.0133294,9.34398591 71.9840014,9.56798594 C72.1013295,10.9226424 72.1653296,11.6213144 72.1760014,11.6639863 C72.2293139,11.9625801 72.4106421,12.1119082 72.7200015,12.1119707 L73.9840017,12.1119707 L73.9840017,9.08797024 L73.9840017,7.95197005 C72.2880015,7.38668871 70.8800012,7.10403241 69.760001,7.10403241 Z" id="Path"></path>
                    <path d="M92.767987,7.36001683 L86.751986,7.36001683 L86.751986,8.73603268 C86.751986,9.06667336 86.9039861,9.26400152 87.2079861,9.32803278 C87.5119862,9.39195466 88.0959863,9.50928281 88.9599864,9.68003284 L85.4559858,18.1440342 C85.3279858,18.4747062 85.1679858,18.9547062 84.9759858,19.5840345 C84.8586576,19.0613781 84.7146576,18.5867062 84.5439857,18.1600342 L80.9439851,9.68003284 C81.9466571,9.48803281 82.5333291,9.37070466 82.704001,9.32803278 C83.0240011,9.26403277 83.1840011,9.06670461 83.1840011,8.73603268 L83.1840011,7.36001683 L75.9199999,7.36001683 L75.9199999,8.73603268 C75.9199999,9.06667336 76.0799999,9.26400152 76.4,9.32803278 C76.592,9.37070466 77.0773282,9.46670468 77.8560002,9.61603283 L83.5520011,22.624035 L80.5920007,29.056036 L82.704001,29.056036 C83.1733136,29.056036 83.5146418,28.8213641 83.7279856,28.3520359 L91.7759869,9.66403283 C91.861315,9.65336096 92.1386432,9.60003282 92.6079714,9.50403281 C93.0772996,9.40818904 93.3599715,9.34951716 93.4559715,9.32801715 C93.7759716,9.26401714 93.9359716,9.06668899 93.9359716,8.73601706 L93.9359716,7.36001683 L92.767987,7.36001683 Z" id="Path"></path>
                </g>
                <g id="Logo-Copy" transform="translate(94.968000, 0.000016)" fill="#EDAC01">
                    <path d="M6.97600114,21.6000192 C6.79467299,21.5573473 6.18667289,21.4346754 5.15200084,21.2320035 L5.15200084,0 L0,0 L0,1.37600023 C0,1.70667215 0.160000026,1.90400031 0.480000079,1.96800032 C0.67200011,2.0106722 1.28000021,2.1333441 2.30400038,2.33601601 L2.30400038,21.2320191 L0.480000079,21.6000192 C0.160000026,21.6640192 0,21.8613473 0,22.1920193 L0,23.5680195 L7.47200123,23.5680195 L7.47200123,22.1920193 C7.47200123,21.8613473 7.30671995,21.6640192 6.97600114,21.6000192 Z" id="Path"></path>
                    <path d="M16.4960324,7.10401679 C15.3227041,7.10401679 14.2667039,7.3093137 13.3280319,7.72001689 C12.3893599,8.13065758 11.5946879,8.6959858 10.9440159,9.41600154 C10.2933439,10.1360017 9.79467196,10.9866737 9.44800003,11.968002 C9.1013281,12.9493302 8.92799994,14.0053304 8.92799994,15.1360025 C8.92799994,16.5333308 9.11999997,17.7706592 9.50400004,18.8479875 C9.8880001,19.9253158 10.4240002,20.8293159 11.1120003,21.5599879 C11.8000004,22.2906599 12.6160005,22.8453319 13.5600007,23.2240038 C14.5040009,23.6026757 15.536001,23.7920039 16.6560012,23.7920039 C17.2426732,23.7920039 17.8346733,23.741332 18.4320015,23.6400039 C19.0293297,23.5386757 19.6080017,23.3866757 20.1680174,23.1840038 C20.7280175,22.9813319 21.2533457,22.72266 21.7440177,22.407988 C22.2346896,22.0933161 22.6560178,21.7226442 23.0080179,21.2959722 L22.2080177,20.2559721 C22.080049,20.0746439 21.8987208,19.983972 21.6640333,19.983972 C21.4827051,19.983972 21.2667051,20.0666439 21.0160332,20.2319721 C20.7653613,20.3973002 20.4533612,20.5759721 20.080033,20.7679722 C19.7067048,20.9599722 19.2613766,21.1386441 18.7440484,21.3039722 C18.2267202,21.4693004 17.6107201,21.5519723 16.8960481,21.5519723 C16.128048,21.5519723 15.4347198,21.4266441 14.8160478,21.1759722 C14.1973758,20.9253003 13.6640476,20.5466284 13.2160475,20.0399564 C12.7680474,19.5332845 12.4160474,18.9012843 12.1600473,18.1439561 C11.9040473,17.3866278 11.7653754,16.4959558 11.7440473,15.4719557 L22.528049,15.4719557 C22.794721,15.4719557 22.9760491,15.3972838 23.0720491,15.2479556 C23.1680492,15.0986431 23.2160492,14.7999712 23.2160492,14.3519399 C23.2160492,13.1999397 23.0480491,12.1732676 22.7120491,11.2719237 C22.376049,10.3705954 21.9093771,9.6132672 21.3120488,8.99992335 C20.7147206,8.38659512 20.0053924,7.91726692 19.1840641,7.59192312 C18.3627359,7.26668869 17.4667045,7.10401679 16.4960324,7.10401679 Z M16.5600637,9.19992336 C17.2107357,9.19986088 17.7894076,9.30918903 18.2960796,9.52790781 C18.8027516,9.74654847 19.2320798,10.0558766 19.5840798,10.455908 C19.9360486,10.855908 20.2027205,11.33058 20.3840956,11.8799082 C20.5653768,12.4292364 20.6560956,13.0345646 20.6560956,13.6958929 L11.8400942,13.6958929 C12.0320942,12.2878926 12.5227662,11.1865643 13.3120944,10.3918923 C14.1014227,9.59722032 15.1840635,9.19992336 16.5600637,9.19992336 Z" id="Shape"></path>
                    <path d="M39.0965804,21.5637379 C38.8852366,21.5214254 37.9584552,21.3371597 37.5144864,21.2487847 L37.5144864,13.1680022 C37.5144864,12.2617051 37.3916739,11.4296737 37.1465801,10.6720799 C36.9011426,9.91464225 36.53883,9.26967339 36.0584549,8.73603268 C35.5784236,8.20254822 34.9865798,7.78661065 34.2825796,7.48806373 C33.5786108,7.1895168 32.7731419,7.03982928 31.866673,7.03982928 C30.6080478,7.03982928 29.4610788,7.25345431 28.4265787,7.68004813 C27.391891,8.10664195 26.4267346,8.75193893 25.5307657,9.61609533 L26.0426095,10.5279705 C26.1280471,10.6774861 26.2427971,10.8027518 26.3867346,10.9040643 C26.5307034,11.0052206 26.6988909,11.0560487 26.8908909,11.0560487 C27.1359847,11.0560487 27.3838598,10.9681737 27.6348598,10.7922518 C27.8852348,10.6161736 28.1841099,10.4191111 28.5308287,10.200236 C28.87711,9.98170476 29.2882663,9.7843141 29.7628914,9.60823595 C30.2373602,9.4321578 30.8211728,9.34395466 31.5148292,9.34395466 C32.5708294,9.34395466 33.3681107,9.66889221 33.9066733,10.3184548 C34.4452359,10.9680018 34.7147672,11.925627 34.7147672,13.1921115 L34.7147672,14.4640024 C32.8802044,14.4640024 31.3281104,14.6112368 30.0589852,14.9055181 C28.7893912,15.2001275 27.7629223,15.5772057 26.9787659,16.0374089 C26.1949221,16.4976121 25.6268595,17.0246903 25.2748594,17.6188466 C24.9228594,18.2131436 24.7467968,18.8313937 24.7467968,19.4734094 C24.7467968,20.2118314 24.8666406,20.8513784 25.1068281,21.3917535 C25.3468282,21.932113 25.6691407,22.379363 26.0745783,22.7321756 C26.4800471,23.0856444 26.9571097,23.350582 27.5066723,23.5274882 C28.0558911,23.7037226 28.6449537,23.7922539 29.2745163,23.7922539 C29.8929227,23.7922539 30.4557353,23.7384883 30.9625166,23.6319257 C31.4691104,23.5256757 31.946673,23.3678007 32.3945793,23.15991 C32.8423294,22.952035 33.2690795,22.6959412 33.674517,22.3916599 C34.0799546,22.0880349 34.4958922,21.7439098 34.9226422,21.359941 L35.2425173,22.8638319 C35.2957986,23.1413944 35.4077673,23.3225507 35.5784236,23.4078007 C35.7489236,23.4933789 35.9730487,23.5360195 36.2506112,23.5360195 L37.2752676,23.5360195 L37.5144864,23.5360195 L39.5839868,23.5360195 L39.5839868,22.1549255 C39.5839868,21.8714567 39.3770805,21.6194723 39.0965804,21.5637379 Z M34.7144235,19.6162063 C34.3943922,19.9575501 34.0665171,20.2615033 33.7304233,20.5280815 C33.3944857,20.7948159 33.0424857,21.0215503 32.6744544,21.2081285 C32.3063918,21.3947066 31.914548,21.5389723 31.4986104,21.6398004 C31.0825166,21.7414567 30.6237978,21.7921129 30.1226102,21.7921129 C29.7489851,21.7921129 29.4027038,21.7466911 29.0825163,21.6555348 C28.7625162,21.564066 28.4849537,21.4194566 28.2506724,21.2209254 C28.0157349,21.0223784 27.8291411,20.767769 27.6906098,20.4565971 C27.5519223,20.1452689 27.482391,19.7750657 27.482391,19.3458625 C27.482391,18.8954875 27.6130785,18.4880812 27.8745786,18.1231436 C28.1358911,17.7583623 28.5544537,17.4421122 29.1305475,17.1735653 C29.7065164,16.9055028 30.452954,16.688284 31.3703917,16.5218777 C32.2876731,16.3552996 33.402517,16.2721745 34.7144235,16.2721745 L34.7144235,19.6162063 Z" id="Shape"></path>
                    <path d="M46.5120008,10.6720174 L46.3200008,8.14401696 C46.2773289,7.85604816 46.1973289,7.65337625 46.0800008,7.53601686 C45.9626726,7.41881372 45.7493445,7.36014183 45.4400007,7.36001683 L43.8080004,7.36001683 L41.504,7.36001683 L41.504,8.73601706 C41.504,9.06665774 41.664,9.26398589 41.9840001,9.32801715 C42.1760001,9.37065779 42.7840002,9.49332968 43.8080004,9.69601721 L43.8080004,21.2320191 L41.9840001,21.6000192 C41.664,21.6640192 41.504,21.8613473 41.504,22.1920193 L41.504,23.5680195 L48.9600012,23.5680195 L48.9600012,22.1920193 C48.9600012,21.8613473 48.8000012,21.6640192 48.4800011,21.6000192 C47.5306729,21.4080191 46.9226728,21.2853472 46.6560008,21.2320191 L46.6560008,13.2480178 C47.5733291,10.9973456 48.9600012,9.87201724 50.8160015,9.87201724 C51.3706735,9.87201724 51.8026736,9.92268913 52.1120017,10.0240173 C52.4213299,10.1253454 52.67733,10.1760173 52.8800019,10.1760173 C53.0826738,10.1760173 53.2213457,10.0426891 53.2960176,9.77601723 L53.6640176,7.64801688 C53.0133613,7.26401682 52.272033,7.07201678 51.4400329,7.07201678 C49.3387044,7.07201678 47.696001,8.27201698 46.5120008,10.6720174 Z" id="Path"></path>
                    <path d="M60.3200008,9.71201722 L60.0960008,7.95201693 C59.9893289,7.55734499 59.7333289,7.36001683 59.328,7.36001683 L57.6320004,7.36001683 L55.328,7.36001683 L55.328,8.73601706 C55.328,9.06665774 55.488,9.26398589 55.8080001,9.32801715 C56.0000001,9.37065779 56.6080002,9.49332968 57.6320004,9.69601721 L57.6320004,21.2320191 L55.8080001,21.6000192 C55.488,21.6640192 55.328,21.8613473 55.328,22.1920193 L55.328,23.5680195 L62.8000012,23.5680195 L62.8000012,22.1920193 C62.8000325,21.8613473 62.6347043,21.6640192 62.3040011,21.6000192 C61.1626728,21.3653473 60.5546727,21.2426754 60.4800008,21.2320035 L60.4800008,11.6320019 C61.8240011,10.1280017 63.2853294,9.37600154 64.8640016,9.37600154 C67.1360019,9.37600154 68.2720021,10.6666736 68.2720021,13.2480022 L68.2720021,23.5680195 L73.440003,23.5680195 L73.440003,22.1920036 C73.440003,21.8613317 73.2746748,21.6640036 72.9440029,21.6000035 C72.7626747,21.5573317 72.1546746,21.4346598 71.1200026,21.2319879 L71.1200026,13.2479865 C71.1200338,11.3706581 70.6613619,9.887986 69.7440024,8.79998582 C68.7946741,7.66931376 67.4453457,7.10398554 65.6960173,7.10398554 C63.6906889,7.10398554 61.898673,7.97334506 60.3200008,9.71201722 Z" id="Path"></path>
                    <path d="M77.6124691,3.68815685 C77.7990473,3.87521939 78.0126723,4.02178191 78.252688,4.12818818 C78.4925474,4.23475069 78.7512506,4.28836008 79.028485,4.28836008 C79.3058757,4.28836008 79.5673757,4.23490694 79.8126414,4.12818818 C80.057907,4.02193816 80.2738289,3.87537564 80.4605633,3.68815685 C80.6471259,3.50206307 80.7964853,3.28828179 80.9082978,3.04826612 C81.0207666,2.80825046 81.0766728,2.54985979 81.0766728,2.27229725 C81.0766728,1.9952347 81.0206103,1.73110966 80.9082978,1.48028149 C80.796329,1.22992208 80.6469696,1.01106267 80.4605633,0.82448451 C80.2736571,0.637593855 80.057907,0.491015705 79.8126414,0.384453188 C79.5673757,0.277718796 79.3058757,0.224609412 79.028485,0.224609412 C78.7512506,0.224609412 78.4925474,0.277718796 78.252688,0.384453188 C78.0126723,0.491015705 77.7990473,0.637593855 77.6124691,0.82448451 C77.4259066,1.01106267 77.2791722,1.22992208 77.1724378,1.48028149 C77.0657034,1.73110966 77.012594,1.9952347 77.012594,2.27229725 C77.012594,2.55003167 77.0657034,2.80840671 77.1724378,3.04826612 C77.2791722,3.28812554 77.4259066,3.50206307 77.6124691,3.68815685 Z M82.2577511,21.5957379 C81.9772355,21.5396754 80.436454,21.2332535 80.436454,21.2332535 L80.436454,7.36006371 L75.28,7.36006371 L75.28,8.74115768 C75.28,9.0244546 75.4867344,9.27676715 75.7672501,9.33251715 C76.0477657,9.38857966 77.5887035,9.69500159 77.5887035,9.69500159 L77.5887035,21.2330972 C77.5887035,21.2330972 76.047922,21.5395035 75.7672501,21.5955817 C75.4867344,21.651316 75.28,21.9036286 75.28,22.1869411 L75.28,23.5680195 L82.7451575,23.5680195 L82.7451575,22.1869411 C82.7451575,21.9034723 82.5384231,21.6514879 82.2577511,21.5957379 Z" id="Shape"></path>
                    <path d="M89.6000008,9.71201722 L89.3760008,7.95201693 C89.2693289,7.55734499 89.0133289,7.36001683 88.608,7.36001683 L86.9120004,7.36001683 L84.608,7.36001683 L84.608,8.73601706 C84.608,9.06665774 84.768,9.26398589 85.0880001,9.32801715 C85.2800001,9.37065779 85.8880002,9.49332968 86.9120004,9.69601721 L86.9120004,21.2320191 L85.0880001,21.6000192 C84.768,21.6640192 84.608,21.8613473 84.608,22.1920193 L84.608,23.5680195 L92.0800012,23.5680195 L92.0800012,22.1920193 C92.0800325,21.8613473 91.9147043,21.6640192 91.5840011,21.6000192 C90.4426728,21.3653473 89.8346727,21.2426754 89.7600008,21.2320035 L89.7600008,11.6320019 C91.1040011,10.1280017 92.5653294,9.37600154 94.1440016,9.37600154 C96.4160019,9.37600154 97.5520021,10.6666736 97.5520021,13.2480022 L97.5520021,23.5680195 L102.720003,23.5680195 L102.720003,22.1920036 C102.720003,21.8613317 102.554675,21.6640036 102.224003,21.6000035 C102.042675,21.5573317 101.434675,21.4346598 100.400003,21.2319879 L100.400003,13.2479865 C100.400034,11.3706581 99.9413619,9.887986 99.0240024,8.79998582 C98.0746741,7.66931376 96.7253457,7.10398554 94.9760173,7.10398554 C92.9706889,7.10398554 91.178673,7.97334506 89.6000008,9.71201722 Z" id="Path"></path>
                    <path d="M110.944001,7.08801679 C110.048001,7.08801679 109.224001,7.21068868 108.472001,7.45601685 C107.720001,7.70134501 107.072,8.05067319 106.528,8.50400139 C105.984,8.95732959 105.56,9.50665781 105.256,10.151986 C104.952,10.7973143 104.8,11.5146425 104.8,12.3039708 C104.8,13.2959709 105.026672,14.1626429 105.48,14.9039712 C105.933328,15.6452994 106.56,16.2399714 107.36,16.6879715 C107.018672,16.8586434 106.72,17.0559715 106.464,17.2799716 C106.208,17.5039716 105.992,17.7386435 105.816,17.9839873 C105.64,18.2293155 105.509328,18.4773155 105.424,18.7279874 C105.338672,18.9786594 105.296,19.2213313 105.296,19.4560032 C105.296,20.0533314 105.432,20.5306596 105.704,20.8879878 C105.976,21.245316 106.341328,21.5306442 106.8,21.7439723 C105.914672,22.0746442 105.218672,22.5199724 104.712,23.0799725 C104.205328,23.6399726 103.952,24.3199727 103.952,25.1199729 C103.952,25.6853011 104.098672,26.2266293 104.392,26.7439575 C104.685328,27.2612857 105.125328,27.7172858 105.712,28.1119577 C106.298672,28.5066297 107.037344,28.8213016 107.928016,29.0559735 C108.818688,29.2906454 109.856016,29.4079736 111.040017,29.4079736 C112.224017,29.4079736 113.285345,29.2559735 114.224017,28.9519735 C115.162689,28.6479734 115.957361,28.2426453 116.608033,27.7359889 C117.258705,27.229317 117.757377,26.650645 118.104049,25.999973 C118.450721,25.349301 118.624049,24.6773009 118.624049,23.9839727 C118.624049,23.2373007 118.469377,22.6293006 118.160049,22.1599724 C117.850721,21.6906442 117.440049,21.3226441 116.928049,21.0559722 C116.416064,20.7893003 115.834736,20.5973003 115.184064,20.4799721 C114.533392,20.362644 113.869392,20.2799721 113.192064,20.2319721 C112.514736,20.1839877 111.850736,20.1493158 111.200064,20.1279564 C110.549392,20.1066283 109.968063,20.0533002 109.456063,19.9679564 C108.944063,19.8826283 108.533391,19.7413001 108.224047,19.5439563 C107.914719,19.3466282 107.760047,19.0559562 107.760032,18.6719562 C107.760032,18.4372843 107.848032,18.1972842 108.024032,17.9519561 C108.200032,17.7066279 108.458704,17.4772997 108.800032,17.2639716 C109.472032,17.4452997 110.186704,17.5359716 110.944032,17.5359872 C111.829361,17.5359872 112.642689,17.4133154 113.384033,17.1679872 C114.125361,16.922659 114.765361,16.570659 115.304033,16.111987 C115.842705,15.6533307 116.264033,15.1013306 116.568033,14.4559867 C116.872033,13.8106585 117.024033,13.0933303 117.024033,12.3039864 C117.024065,11.4506581 116.842736,10.6773299 116.480049,9.98398601 L118.320049,9.72798597 C118.768049,9.63198595 118.992049,9.40798592 118.992049,9.05598586 L118.992049,7.99998569 L114.592049,7.99998569 C114.09072,7.70131376 113.533392,7.47464185 112.920064,7.31996995 C112.306736,7.16554805 111.648001,7.08826679 110.944001,7.08801679 Z M116.000064,24.4479728 C116.000064,24.8746447 115.888064,25.2639729 115.664064,25.6159729 C115.440064,25.967973 115.117392,26.2719731 114.696064,26.5279731 C114.274736,26.7839731 113.760064,26.9813013 113.152064,27.1199732 C112.544064,27.2586451 111.856064,27.3279576 111.088064,27.3279576 C110.298735,27.3279576 109.613407,27.2612701 109.032063,27.1279419 C108.450735,26.9945982 107.968063,26.81327 107.584063,26.5839419 C107.200063,26.3546137 106.914735,26.0826137 106.728063,25.7679417 C106.541407,25.4532698 106.448078,25.1145979 106.448078,24.7519259 C106.448078,24.1759258 106.637407,23.6799258 107.016079,23.2639257 C107.39475,22.8479256 107.888079,22.4959256 108.496079,22.2079255 C109.018735,22.2932537 109.568063,22.3519255 110.144063,22.3839255 C110.720064,22.4159255 111.285392,22.4452537 111.840064,22.4719256 C112.394736,22.4985974 112.922736,22.5439256 113.424064,22.6079256 C113.925392,22.6719256 114.368064,22.7705975 114.75208,22.9039256 C115.13608,23.0372538 115.44008,23.2265819 115.66408,23.4719101 C115.88808,23.7172383 116.000064,24.0426446 116.000064,24.4479728 Z M110.944079,15.6478932 C110.378751,15.6478932 109.877423,15.5678932 109.440095,15.4078932 C109.002766,15.2478931 108.634766,15.0238931 108.336094,14.735893 C108.037422,14.447893 107.810751,14.1038929 107.656079,13.7038929 C107.501407,13.3038928 107.424079,12.8638927 107.424079,12.3838927 C107.424079,11.3918925 107.725407,10.6025642 108.328079,10.0158923 C108.930751,9.4292203 109.802751,9.13589212 110.944079,9.13589212 C112.096079,9.13589212 112.973408,9.42917342 113.57608,10.0158766 C114.178752,10.602533 114.48008,11.3918612 114.48008,12.3838614 C114.48008,12.8638615 114.405408,13.3038616 114.25608,13.7038616 C114.106752,14.1038617 113.882752,14.4478617 113.58408,14.7358618 C113.285423,15.0238618 112.914751,15.2478619 112.472079,15.4078619 C112.029423,15.5678619 111.520079,15.6478932 110.944079,15.6478932 Z" id="Shape"></path>
                </g>
            </g>
        </g>
    </g>
</svg>