<svg height="120" viewBox="0 0 220 120" width="220" xmlns="http://www.w3.org/2000/svg" xmlns:xlink="http://www.w3.org/1999/xlink"><mask id="a" fill="#fff"><path d="m.787 7.611 5.727 9.106 6.336-10.324-6.125-5.762" fill="#fff" fill-rule="evenodd"/></mask><mask id="b" fill="#fff"><path d="m.61 6.393 6.335 10.324 5.728-9.106-5.94-6.98" fill="#fff" fill-rule="evenodd"/></mask><mask id="c" fill="#fff"><path d="m1.673.611-1 20.361h8.114l-1-20.361" fill="#fff" fill-rule="evenodd"/></mask><mask id="d" fill="#fff"><path d="m0 97h183.459v-97.003h-183.459z" fill="#fff" fill-rule="evenodd"/></mask><mask id="e" fill="#fff"><path d="m5.243.562c-2.77.27-4.799 2.733-4.53 5.504.269 2.77 3.07 5.612 6.021 5.41 3.053-.207 4.281-3.614 4.012-6.384-.253-2.605-2.446-4.553-5.011-4.553-.163 0-.327.008-.492.023" fill="#fff" fill-rule="evenodd"/></mask><mask id="f" fill="#fff"><path d="m5.243.562c-2.77.27-4.799 2.733-4.53 5.504.269 2.77 3.07 5.612 6.021 5.41 3.053-.207 4.281-3.614 4.012-6.384-.253-2.605-2.446-4.553-5.011-4.553-.163 0-.327.008-.492.023z" fill="#fff" fill-rule="evenodd"/></mask><mask id="g" fill="#fff"><path d="m.6284-.003h50.41v42.725h-50.41z" fill="#fff" fill-rule="evenodd"/></mask><g fill="none" fill-rule="evenodd" transform="translate(18 8)"><g transform="translate(29 24.0033)"><path d="m35.9882 71.8304h53.482c8.609-7.48 14.059-18.501 14.059-30.801 0-22.533-18.267-40.8-40.8-40.8s-40.8 18.267-40.8 40.8c0 12.3 5.451 23.321 14.059 30.801" fill="#fff"/><path d="m62.7294 71.5004c23.583 0 45.168-4.071 61.867-10.814l-17.813-15.49-13.411 13.412-30.643-29.208-30.643 29.207-13.411-13.411-17.812 15.49c16.698 6.743 38.283 10.814 61.866 10.814" fill="#fedfb8"/><path d="m54.8759 71.8304 2.806-8.243-6.544-2.822-2.812 11.065z" fill="#cf9544"/><path d="m77.1337 71.8304-2.813-11.065-6.543 2.822 2.805 8.243z" fill="#cf9544"/><path d="m52.8515 46.6537-4.032 17.236 10.072 1.411 5.955-11.995 1.411-6.652-6.451-4.436z" fill="#17222a"/><path d="m72.6073 46.6537 4.032 17.236-10.071 1.411-5.955-11.995-1.411-6.652 6.451-4.436z" fill="#17222a"/><path d="m74.5194 49.972-6.784 1.718c-.474.14-.948-.214-.948-.707v-1.011h-8.115v1.011c0 .493-.475.847-.949.707l-6.783-1.718 3.818-20.361h15.943z" fill="#5a6c7a"/><path d="m71.7255 22.6302 2.068-2.615-1.869-10.819 3.443-.356 2.835 11.489c.123.499.073 1.024-.142 1.49l-2.172 4.729z" fill="#fedfb8"/><path d="m71.7255 22.6302-5.938 6.98 5.726 9.107 6.336-10.324z" fill="#5a6c7a"/></g><g transform="translate(94 46.0033)"><path d="m4.4433 2.1371 7.196 6.773" fill="#fff" mask="url(#a)"/><path d="m4.4433 2.1371 7.196 6.773" mask="url(#a)" stroke="#384652" stroke-linecap="round" stroke-width="2"/></g><g transform="translate(76 32.0033)"><path d="m6.7333 14.6302-2.067-2.615 1.868-10.819-3.442-.356-2.835 11.489c-.123.499-.073 1.024.141 1.49l2.173 4.729z" fill="#fedfb8"/><path d="m6.7333 14.6302 5.939 6.98-5.727 9.107-6.335-10.324z" fill="#5a6c7a"/></g><g transform="translate(76 46.0033)"><path d="m9.0165 2.1371-7.197 6.773" fill="#fff" mask="url(#b)"/><path d="m9.0165 2.1371-7.197 6.773" mask="url(#b)" stroke="#384652" stroke-linecap="round" stroke-width="2"/></g><path d="m95.787 73.9753h-8.114l1-20.361h6.114z" fill="#384652"/><path d="m11.2802-2.5973c0-3.617-2.933-6.55-6.551-6.55-3.617 0-6.55 2.933-6.55 6.55s2.933 6.55 6.55 6.55c3.618 0 6.551-2.933 6.551-6.55" fill="#f7c991" mask="url(#c)" transform="translate(87 53.0033)"/><g transform="translate(0 .0033)"><path d="m82.6347 85.722-4.251-.602c-.347-.048-.561-.358-.481-.691l1.452-6.013c.081-.333.426-.563.773-.514l4.251.6c.347.05.562.36.482.693l-1.453 6.012c-.081.333-.426.564-.773.515" fill="#384652"/><path d="m100.8241 85.722 4.252-.602c.346-.048.561-.358.48-.691l-1.452-6.013c-.08-.333-.426-.563-.772-.514l-4.252.6c-.346.05-.562.36-.481.693l1.453 6.012c.08.333.425.564.772.515" fill="#384652"/><g stroke-linecap="round"><path d="m19.6146 79.8881c17.572 9.569 43.366 15.612 72.115 15.612 28.75 0 54.543-6.043 72.115-15.612" stroke="#edc001" stroke-linejoin="round" stroke-width="3"/><path d="m135.0917 44.6302 47.367-19.021" stroke="#fff" stroke-dasharray="0 5" stroke-width="2"/><path d="m137.4188 62.8461h36.247" stroke="#fff" stroke-dasharray="0 5" stroke-width="2"/><path d="m48.3681 44.6302-47.368-19.021" stroke="#fff" stroke-dasharray="0 5" stroke-width="2"/><path d="m46.0399 62.8461h-36.247" stroke="#fff" stroke-dasharray="0 5" stroke-width="2"/></g><path d="m88.673 53.611h6.114v-1.504h-6.114z" fill="#f7c991" mask="url(#d)"/><path d="m96.746 48.0922c.269 2.771-.959 6.177-4.012 6.384-2.951.201-5.752-2.64-6.021-5.41-.269-2.771 1.76-5.235 4.53-5.503 2.771-.269 5.234 1.758 5.503 4.529" fill="#fedfb8" mask="url(#d)"/></g><path d="m4.5253 4.7211c.217 2.237-1.334 4.219-3.466 4.426-2.131.207-4.034-1.44-4.251-3.677s1.335-4.219 3.466-4.426c2.131-.206 4.034 1.44 4.251 3.677" fill="#17222a" mask="url(#e)" transform="translate(86 43.0033)"/><path d="m14.6356 1.8138-18.612 4.395-1.656-7.013 18.613-4.395z" fill="#edc001" mask="url(#f)" transform="translate(86 43.0033)"/><g transform="translate(56 .0033)"><path d="m33.4677 46.4203 8.813-2.075" stroke="#edc001" stroke-linecap="round" stroke-width="2"/><path d="m21.577 38.9818-.989 4.009 4.358-.599.742-4.299z" fill="#cf9544"/><path d="m48.4491 33.1742-3.401.735.965 5.59 3.866-.531z" fill="#cf9544"/><path d="m7.6434 42.722-7.015-34.06 41.929-8.634c.81-.167 1.601.354 1.767 1.163l6.714 32.594z" fill="#edc001" mask="url(#g)" transform="translate(10)"/><path d="m10.535 44.1869-6.753-32.783c-.144-.705.309-1.395 1.014-1.54l5.833-1.201 7.014 34.059z" fill="#fedfb8"/><path d="m11.8407 14.5472-.491-2.381 43.394-8.936.492 2.379z" fill="#a68602"/><path d="m12.9872 43.682-7.015-34.06 2.21-.455 7.015 34.06z" fill="#f7c991"/><path d="m10.1864 30.1117v-.001l-1.673-8.093-.001-.001-8.108 1.687 4.891 3.204-3.218 4.891z" fill="#6b8295"/><g stroke="#fff" stroke-linecap="round" stroke-linejoin="round" stroke-width="2"><path d="m37.9638 33.4574-14.381-10.247 2.806-6.223 7.844-1.618 8.098-1.683 4.785 4.67z"/><path d="m47.1161 18.3568-23.533 4.854"/><path d="m26.3886 16.9877 11.575 16.47 4.113-19.706"/><path d="m29.8612 21.9281 4.371-6.559"/><path d="m40.8427 19.6635-6.61-4.294"/></g><path d="m41.4472 49.5756-1.264.754c-.126.155-.354.179-.509.053l-1.043-.239c-.156-.126-.179-.353-.053-.508l1.17-1.438c.126-.155.353-.179.509-.053l1.137.922c.204.161.213.381.053.509" fill="#fedfb8"/></g></g></svg>